<svg xmlns="http://www.w3.org/2000/svg" viewBox="0 0 512 512">
  <!-- Background -->
  <rect width="512" height="512" rx="100" fill="#4CAF50"/>
  
  <!-- Shopping basket -->
  <path d="M156 216h200v160c0 12-8 20-20 20H176c-12 0-20-8-20-20V216z" fill="#FFFFFF"/>
  <path d="M136 196h240v40H136z" fill="#FFEB3B"/>
  
  <!-- Handle -->
  <path d="M176 196c0-44 36-80 80-80s80 36 80 80" fill="none" stroke="#FFFFFF" stroke-width="24" stroke-linecap="round"/>
  
  <!-- Fork and spoon -->
  <path d="M356 256l20 100M356 256c8 0 14-30 14-60s-6-60-14-60M376 256c8 0 14-30 14-60s-6-60-14-60" fill="none" stroke="#FFC107" stroke-width="8" stroke-linecap="round"/>
  <path d="M156 236c0-20 10-40 20-40s20 20 20 40c0 20-10 30-20 30v90" fill="none" stroke="#FFC107" stroke-width="8" stroke-linecap="round"/>
</svg> 